<svg width="24" height="24" viewBox="0 0 24 24" fill="none" xmlns="http://www.w3.org/2000/svg">
<path d="M0.476316 22.65C0.176316 22.35 0.0263164 21.9917 0.0263164 21.575C0.0263164 21.1583 0.176316 20.8 0.476316 20.5L8.97632 12L0.426316 3.45C0.126316 3.15 -0.0153509 2.79167 0.00131579 2.375C0.0179825 1.95833 0.176316 1.6 0.476316 1.3C0.776316 1 1.12632 0.85 1.52632 0.85C1.92632 0.85 2.27632 1 2.57632 1.3L12.2263 10.95C12.393 11.1167 12.5096 11.2833 12.5763 11.45C12.643 11.6167 12.6763 11.8 12.6763 12C12.6763 12.2 12.643 12.3833 12.5763 12.55C12.5096 12.7167 12.393 12.8833 12.2263 13.05L2.62632 22.65C2.32632 22.95 1.96798 23.1 1.55132 23.1C1.13465 23.1 0.776316 22.95 0.476316 22.65ZM22.4263 24C21.993 24 21.6346 23.8583 21.3513 23.575C21.068 23.2917 20.9263 22.9333 20.9263 22.5V1.5C20.9263 1.06667 21.068 0.708334 21.3513 0.425C21.6346 0.141667 21.993 0 22.4263 0C22.8596 0 23.218 0.141667 23.5013 0.425C23.7846 0.708334 23.9263 1.06667 23.9263 1.5V22.5C23.9263 22.9333 23.7846 23.2917 23.5013 23.575C23.218 23.8583 22.8596 24 22.4263 24Z" fill="black"/>
</svg>
