<svg width="13" height="23" viewBox="0 0 13 23" fill="none" xmlns="http://www.w3.org/2000/svg">
<path d="M12.5 0.426287C12.7667 0.75962 12.9084 1.12629 12.925 1.52629C12.9417 1.92629 12.8 2.27629 12.5 2.57629L3.70004 11.3763L12.55 20.2263C12.8167 20.493 12.9417 20.8513 12.925 21.3013C12.9084 21.7513 12.7667 22.1096 12.5 22.3763C12.1667 22.7096 11.8084 22.868 11.425 22.8513C11.0417 22.8346 10.7 22.6763 10.4 22.3763L0.450043 12.4263C0.283376 12.2596 0.166709 12.093 0.100042 11.9263C0.0333757 11.7596 4.19617e-05 11.5763 4.19617e-05 11.3763C4.19617e-05 11.1763 0.0333757 10.993 0.100042 10.8263C0.166709 10.6596 0.283376 10.493 0.450043 10.3263L10.35 0.426287C10.65 0.126287 11 -0.0153792 11.4 0.00128746C11.8 0.0179541 12.1667 0.15962 12.5 0.426287V0.426287Z" fill="black"/>
</svg>
