<svg width="24" height="24" viewBox="0 0 24 24" fill="none" xmlns="http://www.w3.org/2000/svg">
<path d="M21.25 22.75L11.7 13.2C11.5333 13.0333 11.4167 12.8667 11.35 12.7C11.2833 12.5333 11.25 12.35 11.25 12.15C11.25 11.95 11.2833 11.7667 11.35 11.6C11.4167 11.4333 11.5333 11.2667 11.7 11.1L21.3 1.5C21.6 1.2 21.9583 1.05 22.375 1.05C22.7917 1.05 23.15 1.2 23.45 1.5C23.75 1.8 23.9 2.15833 23.9 2.575C23.9 2.99167 23.75 3.35 23.45 3.65L14.95 12.15L23.45 20.65C23.75 20.95 23.9 21.3 23.9 21.7C23.9 22.1 23.75 22.45 23.45 22.75C23.15 23.05 22.7833 23.2 22.35 23.2C21.9167 23.2 21.55 23.05 21.25 22.75V22.75ZM1.5 24C1.06667 24 0.708334 23.8583 0.425 23.575C0.141667 23.2917 0 22.9333 0 22.5V1.5C0 1.06667 0.141667 0.708334 0.425 0.425C0.708334 0.141667 1.06667 0 1.5 0C1.93333 0 2.29167 0.141667 2.575 0.425C2.85833 0.708334 3 1.06667 3 1.5V22.5C3 22.9333 2.85833 23.2917 2.575 23.575C2.29167 23.8583 1.93333 24 1.5 24Z" fill="black"/>
</svg>
